<?xml version="1.0"?>
<svg xmlns="http://www.w3.org/2000/svg" xmlns:xlink="http://www.w3.org/1999/xlink" viewBox="0 0 512 512" width="512" height="512"><defs><linearGradient id="linear-gradient" x1="57.572" y1="460.07" x2="328.027" y2="189.614" gradientUnits="userSpaceOnUse"><stop offset="0" stop-color="#41dfd0"/><stop offset="1" stop-color="#ee83ef"/></linearGradient></defs><g id="gradient"><path d="M456.173,329.476l-6.6-1.321a7.788,7.788,0,0,0-.773-.115l-78.112-7.811-43.465-27.584a207.08,207.08,0,0,1-66.281-67.964l-.595-.992a210.424,210.424,0,0,1-27.289-74.022l-1.163-6.982a7.993,7.993,0,0,0-.736-2.263l-16-32A8,8,0,0,0,203.2,105.6l-28.822,21.616L122.2,112.308a8,8,0,0,0-7.11,1.377L70.584,148.3A48.9,48.9,0,0,0,34.9,112.478l-.956-.239a8,8,0,0,0-9.528,5.231L23.2,121.1a49,49,0,0,0,7.283,44.881l9.754,13,7.7,84.656-12.5,68.78a80.206,80.206,0,0,0,2.815,39.609l.6,1.81-20.5,20.5A8,8,0,0,0,16,400a44.26,44.26,0,0,0,.991,9.273c.041.259.095.513.16.764a45.172,45.172,0,0,0,37.4,34.408l2.954.422A312.741,312.741,0,0,0,101.584,448H176a7.994,7.994,0,0,0,3.578-.845,93.057,93.057,0,0,1,61.612-7.584l37.075,8.239A8.034,8.034,0,0,0,280,448h64.536a299.953,299.953,0,0,0,95.023-15.42l22.565-7.522a49.543,49.543,0,0,0-5.951-95.582Zm-92.46,5.278a8,8,0,0,0,3.491,1.206l64.437,6.444a58.515,58.515,0,0,1-21.63,39.341A52.959,52.959,0,0,1,380.288,393.3l-97.2,6.479-29.433-29.433A8,8,0,0,0,248,368H188.944l-12-24H256a8,8,0,0,0,5.381-2.081l46.984-42.714q5.043,3.617,10.281,6.949ZM53.766,368l-.344-1.03a64.188,64.188,0,0,1-2.251-31.687l8.134-44.738,28.2-16.918,58.186,43.64L171.056,368ZM243.4,226.362l-91.633,75.465-23.733-17.8,105.5-77.365Q237.972,216.706,243.4,226.362Zm52.13,62.887L252.907,328H213.292l63.888-55.9A223.978,223.978,0,0,0,295.532,289.249Zm-29-29.094L188.994,328h-20.05l-6.938-13.876L251.8,240.176A222.175,222.175,0,0,0,266.535,260.155Zm-61.4-136,11.175,22.35.965,5.792a226.124,226.124,0,0,0,10.135,39.019L115.269,273.549c-.2.148-.393.307-.577.47L92.8,257.6a8,8,0,0,0-8.916-.46L63.113,269.6l.758-4.17a7.984,7.984,0,0,0,.1-2.155L61.706,238.4l61.1-22.913a8,8,0,0,0,4.619-4.52l15.217-38.042,38.262-30.61Zm-83.424,4.657L158.9,139.435,131,161.753a8,8,0,0,0-2.43,3.276L113.884,201.75,60.2,221.879l-1.312-14.424c.026-.01.053-.017.079-.027l40-16a8,8,0,1,0-5.942-14.856L57.381,190.831l-1.018-11.2ZM37.3,130.262a32.929,32.929,0,0,1,18.689,29.39l-6.473,5.035-6.231-8.308A33,33,0,0,1,37.3,130.262ZM174.15,432H101.584a296.745,296.745,0,0,1-41.821-2.972l-2.953-.422A28.934,28.934,0,0,1,36.9,416H112a8,8,0,0,0,0-16H35.313l16-16H183.978l.028,0,.035,0h60.646l16,16H192a8,8,0,0,0,0,16h59.118l-11.59,6.954A109.141,109.141,0,0,0,174.15,432Zm282.914-22.121L434.5,417.4A283.983,283.983,0,0,1,344.536,432H280.878L262.4,427.893l20.064-12.039,98.891-6.592A68.867,68.867,0,0,0,420,394.241a74.493,74.493,0,0,0,27.551-50.172l5.482,1.1a33.543,33.543,0,0,1,4.029,64.713ZM196.422,168.845a8,8,0,1,1,7.156,14.31l-16,8a8,8,0,0,1-7.156-14.31ZM168,408a8,8,0,0,1-8,8H144a8,8,0,0,1,0-16h16A8,8,0,0,1,168,408Z" style="fill:url(#linear-gradient)"/></g></svg>
