<?xml version="1.0"?>
<svg xmlns="http://www.w3.org/2000/svg" xmlns:xlink="http://www.w3.org/1999/xlink" viewBox="0 0 512 512" width="512" height="512"><defs><linearGradient id="linear-gradient" x1="131.03" y1="356.956" x2="380.97" y2="107.016" gradientUnits="userSpaceOnUse"><stop offset="0" stop-color="#41dfd0"/><stop offset="1" stop-color="#ee83ef"/></linearGradient></defs><g id="gradient"><path d="M128.049,283.722a7.995,7.995,0,0,1-10.29,4.7A77.781,77.781,0,0,1,81.49,260.649a8,8,0,1,1,13.02-9.3,61.841,61.841,0,0,0,28.835,22.081A8,8,0,0,1,128.049,283.722Zm45.984-9.541a61.938,61.938,0,0,1-19.529,3.152H145a8,8,0,0,0,0,16h9.5a77.885,77.885,0,0,0,24.567-3.967,8,8,0,1,0-5.038-15.185Zm314.934-59.168A24.009,24.009,0,0,1,472,256H460.067a90.45,90.45,0,0,1-86.476,64H362.409A90.409,90.409,0,0,1,272,229.591a85.063,85.063,0,0,1,12.138-43.879l-3.264-2.175a44.826,44.826,0,0,0-49.74,0l-3.272,2.18A85.063,85.063,0,0,1,240,229.591,90.407,90.407,0,0,1,149.591,320H138.409a90.454,90.454,0,0,1-86.476-64H40a24,24,0,1,1,0-48H50.763a85.742,85.742,0,0,1,82.828-64h20.818a85.671,85.671,0,0,1,16.731,1.653,7.965,7.965,0,0,1,2.33-1.243l24-8A8.027,8.027,0,0,1,200,136H312a8.027,8.027,0,0,1,2.53.41l24,8a7.965,7.965,0,0,1,2.33,1.243A85.671,85.671,0,0,1,357.591,144h20.818a85.742,85.742,0,0,1,82.828,64H472A23.884,23.884,0,0,1,488.967,215.013ZM48.6,240A91.544,91.544,0,0,1,48,229.591c0-1.88.083-3.741.2-5.591H40a8,8,0,0,0,0,16ZM224,229.591A69.67,69.67,0,0,0,154.409,160H133.591A69.67,69.67,0,0,0,64,229.591a74.682,74.682,0,0,0,1.864,16.589c.027.113.052.227.074.342A74.46,74.46,0,0,0,138.409,304h11.182A74.408,74.408,0,0,0,224,229.591Zm65.75-59.366,3.874,2.582a86.134,86.134,0,0,1,23.562-18.646L310.7,152H201.3l-6.484,2.161a86.134,86.134,0,0,1,23.562,18.646l3.878-2.584a60.811,60.811,0,0,1,67.5,0ZM448,229.591A69.67,69.67,0,0,0,378.409,160H357.591A69.67,69.67,0,0,0,288,229.591,74.41,74.41,0,0,0,362.409,304h11.182a74.457,74.457,0,0,0,72.471-57.478c.021-.115.047-.229.074-.342A74.689,74.689,0,0,0,448,229.591ZM480,232a7.977,7.977,0,0,0-8-8h-8.2c.12,1.85.2,3.711.2,5.591a91.544,91.544,0,0,1-.6,10.409H472A8.009,8.009,0,0,0,480,232Z" style="fill:url(#linear-gradient)"/></g></svg>
