<?xml version="1.0"?>
<svg xmlns="http://www.w3.org/2000/svg" xmlns:xlink="http://www.w3.org/1999/xlink" viewBox="0 0 512 512" width="512" height="512"><defs><linearGradient id="linear-gradient" x1="113.679" y1="400.235" x2="397.785" y2="116.129" gradientUnits="userSpaceOnUse"><stop offset="0" stop-color="#41dfd0"/><stop offset="1" stop-color="#ee83ef"/></linearGradient></defs><g id="gradient"><path d="M392.6,159.521l-.624-8.12A120.656,120.656,0,0,0,271.678,40H240.322a120.656,120.656,0,0,0-120.3,111.4l-.592,7.707C54.555,183.6,16,224.057,16,268c0,36.21,25.576,69.853,72.018,94.732C132.878,386.765,192.347,400,255.47,400s122.585-13.235,167.444-37.269c46.44-24.878,72.016-58.522,72.016-94.731C494.93,224.358,456.787,184.053,392.6,159.521Zm-256.626-6.893A104.655,104.655,0,0,1,240.322,56h31.356a104.655,104.655,0,0,1,104.346,96.628l4,52A313.619,313.619,0,0,1,256,230.4a313.619,313.619,0,0,1-124.025-25.773Zm-5.295,68.823A329.807,329.807,0,0,0,256,246.4a329.807,329.807,0,0,0,125.319-24.95l2.278,29.608A313.564,313.564,0,0,1,256,278.4a313.564,313.564,0,0,1-127.6-27.342ZM415.358,348.628C372.781,371.438,316,384,255.47,384s-117.32-12.562-159.9-35.372C54.577,326.666,32,298.032,32,268c0-35.506,31.925-69.058,86.066-91.17l-6.043,78.557a8,8,0,0,0,4.571,7.851A329.509,329.509,0,0,0,256,294.4a329.509,329.509,0,0,0,139.406-31.163,8,8,0,0,0,4.571-7.851l-6.008-78.1c53.448,22.125,84.961,55.5,84.961,90.716C478.93,298.031,456.353,326.666,415.358,348.628ZM256,103.741a115.593,115.593,0,0,1-42.972-8.313,8,8,0,1,1,5.944-14.856,99.283,99.283,0,0,0,74.056,0,8,8,0,1,1,5.944,14.856A115.593,115.593,0,0,1,256,103.741Z" style="fill:url(#linear-gradient)"/></g></svg>
