<?xml version="1.0"?>
<svg xmlns="http://www.w3.org/2000/svg" xmlns:xlink="http://www.w3.org/1999/xlink" viewBox="0 0 512 512" width="512" height="512"><defs><linearGradient id="linear-gradient" x1="68.853" y1="488.167" x2="443.147" y2="113.872" gradientUnits="userSpaceOnUse"><stop offset="0" stop-color="#41dfd0"/><stop offset="1" stop-color="#ee83ef"/></linearGradient></defs><g id="gradient"><path d="M495.507,253.234l-44.1-119.689A88.361,88.361,0,0,0,403.5,83.083L379.367,72.739,333.2,49.657a88.2,88.2,0,0,0-34-26.309l-.037-.016-.1-.043A87.5,87.5,0,0,0,264,16H248a87.511,87.511,0,0,0-35.06,7.289l-.1.044-.043.018c-1.4.612-2.8,1.266-4.152,1.944a88.535,88.535,0,0,0-29.85,24.365L132.633,72.739,108.5,83.083a88.361,88.361,0,0,0-47.91,50.462l-44.1,119.689a8.005,8.005,0,0,0-.436,3.719l24,200A8,8,0,0,0,48,464h56a8,8,0,0,0,7.993-8.333l-7.921-190.094L128,212.932V440c0,.151.014.3.023.448,0,.1,0,.191.014.287a7.942,7.942,0,0,0,.363,1.754c0,.016.008.033.013.049l.043.128a77.9,77.9,0,0,0,74,53.334H309.547a77.9,77.9,0,0,0,73.995-53.326l.045-.136c0-.016.008-.033.013-.049a7.942,7.942,0,0,0,.363-1.754c.009-.1.009-.191.014-.287.009-.149.023-.3.023-.448V212.932l23.928,52.641-7.921,190.094A8,8,0,0,0,408,464h56a8,8,0,0,0,7.943-7.047l24-200A8.005,8.005,0,0,0,495.507,253.234ZM368,432H280V128l19.2,14.4a8,8,0,0,0,11.2-1.6l24-32A8,8,0,0,0,336,104V68.944l32,16Zm-224,0V84.944l32-16V104a8,8,0,0,0,1.6,4.8l24,32a8,8,0,0,0,11.2,1.6L232,128V432ZM268.686,104H243.314L224,84.686V64h64V84.686ZM248,120h16V432H248Zm72-61.247v42.58L302.4,124.8l-18.221-13.666,17.478-17.477A8,8,0,0,0,304,88V44.151A72.158,72.158,0,0,1,320,58.753ZM264,32a71.5,71.5,0,0,1,24,4.14V48H224V36.14A71.5,71.5,0,0,1,248,32ZM208,44.165V88a8,8,0,0,0,2.343,5.657l17.478,17.477L209.6,124.8,192,101.333V58.794A72.59,72.59,0,0,1,208,44.165ZM55.1,448l-1.92-16H94.993l.667,16Zm33.62-187.311a8.01,8.01,0,0,0-.71,3.644L94.326,416H51.257L32.172,256.959,75.6,139.077a72.29,72.29,0,0,1,39.2-41.288L128,92.132v82.135ZM309.547,480H202.453a61.917,61.917,0,0,1-54.266-32H363.814A61.912,61.912,0,0,1,309.547,480ZM416.34,448l.667-16h41.816l-1.92,16Zm44.4-32H417.674l6.319-151.667a8.01,8.01,0,0,0-.71-3.644L384,174.267V92.132l13.2,5.657a72.29,72.29,0,0,1,39.2,41.288l43.431,117.882ZM296,176a8,8,0,0,0-8,8v36a36,36,0,0,0,72,0V184a8,8,0,0,0-8-8Zm48,44a20,20,0,0,1-40,0V192h40Z" style="fill:url(#linear-gradient)"/></g></svg>
